:SAMPLES-PER-SECOND 30
:FULLY-SPECIFIED
:DEGREES
440
root  -8.41548 39.2323 -3.41846 170.298 72.3902 169.376
RightUpLeg  -8.65419 -12.0836 2.04532
RightLeg  18.6093 -17.317 -1.77379
RightFoot  -13.4483 -0.231224 -7.67436
RightToes  -6.98493e-010 0 -3.6325e-017
Spine  9.41657 -3.92974 5.19569
Spine1  1.37609 -3.99162 4.17131
HEad  -13.78 -6.90479 -3.8356
LeftShoulder1  -0.172101 3.98538 -29.5979
LeftArm  -0.0576457 4.38582 -44.122
LeftForeArm  24.1136 -22.9205 -3.75153
LeftHand  -0.0192742 4.03192 -0.146232
RightShoulder  -0.522375 -5.10363 25.8561
RightArm  5.36523 -15.273 45.0567
RightForeArm  2.2052 11.3057 4.12973
RightHand  -0.460446 3.11237 -6.50825
LeftUpLeg  -0.866438 26.739 8.44518
LeftLeg  43.6626 5.61047 6.00427
LeftFoot  9.94458 1.54846 -8.36981
LeftToes  7.91257e-010 -1.64976e-010 -3.02228e-011
441
root  -8.0272 39.0827 -3.59711 168.737 75.4329 168.341
RightUpLeg  -8.28607 -11.1921 2.41951
RightLeg  20.169 -15.1771 -2.21154
RightFoot  -14.5866 -0.299101 -7.05952
RightToes  -6.98493e-010 0 -3.6325e-017
Spine  9.93219 -4.12488 6.53421
Spine1  2.21244 -3.80206 3.86522
HEad  -14.7683 -5.09939 -4.0457
LeftShoulder1  -0.170058 3.97677 -29.8322
LeftArm  0.495513 5.07223 -44.4877
LeftForeArm  21.9141 -21.254 -4.04539
LeftHand  -0.0284221 4.52521 0.460793
RightShoulder  -0.468316 -4.93822 25.7876
RightArm  8.29314 -11.2134 47.043
RightForeArm  4.96317 12.1477 4.9438
RightHand  -0.424741 3.28512 -5.90685
LeftUpLeg  -4.49671 20.5783 7.77176
LeftLeg  50.0509 0.0579699 0.552924
LeftFoot  7.07676 1.45979 -9.25132
LeftToes  7.91257e-010 -1.64976e-010 -3.02228e-011
442
root  -7.52959 39.0515 -3.7829 165.354 78.5765 165.15
RightUpLeg  -7.42484 -9.90469 2.44042
RightLeg  20.3874 -13.4118 -2.16804
RightFoot  -15.1713 -0.329713 -6.78815
RightToes  -6.98493e-010 0 -3.6325e-017
Spine  10.2499 -3.9402 7.76583
Spine1  2.28825 -3.22071 3.17977
HEad  -14.6217 -3.90908 -5.00447
LeftShoulder1  -0.109584 3.80678 -30.0399
LeftArm  0.301709 5.89248 -44.6728
LeftForeArm  21.6561 -18.8514 -4.79616
LeftHand  -0.0327803 4.19908 1.11861
RightShoulder  -0.431238 -4.82824 25.6585
RightArm  11.8021 -8.26044 48.7369
RightForeArm  5.45163 13.7554 5.50237
RightHand  -0.542279 4.37207 -6.72941
LeftUpLeg  -7.71783 14.6457 6.59099
LeftLeg  53.6643 -2.79846 -3.56937
LeftFoot  6.22504 1.35879 -9.03046
LeftToes  7.91257e-010 -1.64976e-010 -3.02228e-011
443
root  -6.96189 39.0625 -3.97785 156.804 82.201 156.654
RightUpLeg  -6.34476 -8.74245 2.34933
RightLeg  20.0082 -10.9451 -1.98428
RightFoot  -15.5459 -0.349708 -6.65666
RightToes  -6.98493e-010 0 -3.6325e-017
Spine  10.5197 -3.35998 9.74667
Spine1  1.99397 -1.9653 1.09773
HEad  -14.1575 -3.08151 -5.16209
LeftShoulder1  -0.0589574 3.6665 -30.0079
LeftArm  -0.593504 6.47363 -44.5331
LeftForeArm  23.1645 -16.3841 -5.74264
LeftHand  -0.0304023 4.7297 0.521588
RightShoulder  -0.469883 -4.96274 25.3491
RightArm  15.1749 -6.10506 50.8117
RightForeArm  5.5182 15.9276 5.50326
RightHand  -0.573342 4.85293 -6.7828
LeftUpLeg  -10.2882 9.96517 5.52121
LeftLeg  54.8169 -2.8543 -3.86822
LeftFoot  4.89575 1.18904 -8.53301
LeftToes  7.91257e-010 -1.64976e-010 -3.02228e-011
444
root  -6.31769 39.1344 -4.10566 130.785 85.3523 130.498
RightUpLeg  -4.99103 -8.28881 1.79239
RightLeg  18.8973 -7.31219 -1.18928
RightFoot  -15.6613 -0.363001 -6.81209
RightToes  -6.98493e-010 0 -3.6325e-017
Spine  11.0179 -2.5415 11.1778
Spine1  0.901856 -0.599432 -1.26349
HEad  -13.2767 -2.25275 -5.49281
LeftShoulder1  0.0239189 3.4373 -29.7873
LeftArm  -2.36303 8.08939 -44.2892
LeftForeArm  25.7047 -14.9942 -6.07782
LeftHand  -0.0301143 5.43396 -0.543264
RightShoulder  -0.454259 -4.90983 25.4342
RightArm  19.1985 -4.30155 51.9751
RightForeArm  3.21566 18.2008 5.36372
RightHand  -0.612284 5.09171 -7.07347
LeftUpLeg  -12.507 6.69932 4.4995
LeftLeg  53.5784 -1.11505 -1.18346
LeftFoot  3.77771 0.829699 -6.39643
LeftToes  7.91257e-010 -1.64976e-010 -3.02228e-011
445
root  -5.62192 39.233 -4.18953 82.2259 85.9157 82.0381
RightUpLeg  -3.18789 -8.22441 0.901386
RightLeg  17.5309 -3.62249 -0.539592
RightFoot  -15.6929 -0.371097 -6.96831
RightToes  -6.98493e-010 0 -3.6325e-017
Spine  11.3949 -1.8116 11.4258
Spine1  0.577059 0.332209 -2.59114
HEad  -13.232 -1.14716 -6.17804
LeftShoulder1  -0.0392371 3.61197 -30.1177
LeftArm  -3.46823 9.37749 -43.5338
LeftForeArm  26.3859 -14.0605 -6.26935
LeftHand  -0.0255449 4.69189 -0.0139312
RightShoulder  -0.410834 -4.77259 25.4323
RightArm  22.5284 -2.72639 52.5781
RightForeArm  1.39716 21.6078 4.9018
RightHand  -0.609813 5.22202 -6.96744
LeftUpLeg  -14.1202 4.38752 3.52697
LeftLeg  50.5211 1.1625 1.93782
LeftFoot  2.04345 0.408573 -3.59113
LeftToes  7.91257e-010 -1.64976e-010 -3.02228e-011
446
root  -4.86134 39.3079 -4.21162 48.4135 84.0985 48.2993
RightUpLeg  -1.26522 -8.16717 0.105036
RightLeg  16.0555 -0.473433 -0.160316
RightFoot  -15.8145 -0.379726 -6.98326
RightToes  -6.98493e-010 0 -3.6325e-017
Spine  11.144 -1.25763 11.5788
Spine1  0.99732 1.01585 -3.99917
HEad  -13.6937 0.587111 -6.74405
LeftShoulder1  -0.085352 3.73775 -30.3786
LeftArm  -4.2636 10.6384 -42.6393
LeftForeArm  26.2149 -13.356 -6.37147
LeftHand  -0.0299835 4.84559 -0.453113
RightShoulder  -0.338644 -4.5542 25.1696
RightArm  23.9854 -0.980707 53.4543
RightForeArm  1.49529 24.0989 5.04238
RightHand  -0.629556 5.41117 -7.06343
LeftUpLeg  -15.4236 3.17948 2.85861
LeftLeg  45.7888 2.5606 3.22725
LeftFoot  0.426442 0.227451 -2.25166
LeftToes  7.91257e-010 -1.64976e-010 -3.02228e-011
447
root  -4.07975 39.316 -4.19225 40.0819 82.527 40.0523
RightUpLeg  0.575473 -8.15305 -0.508077
RightLeg  14.9655 1.49344 -0.10721
RightFoot  -16.2495 -0.394054 -6.62389
RightToes  -6.98493e-010 0 -3.6325e-017
Spine  10.8795 -1.05613 11.4205
Spine1  1.29037 1.18539 -4.71789
HEad  -14.3376 1.28901 -6.67843
LeftShoulder1  -0.0753758 3.70985 -30.4593
LeftArm  -5.14198 11.5268 -41.7892
LeftForeArm  25.9648 -12.1711 -6.58867
LeftHand  -0.0345925 5.14653 -1.02372
RightShoulder  -0.352557 -4.60411 24.9993
RightArm  25.2016 0.787979 54.0016
RightForeArm  1.92716 25.9966 5.48131
RightHand  -0.691743 5.10317 -7.93604
LeftUpLeg  -16.7976 1.76166 2.25218
LeftLeg  39.8255 2.23473 2.39261
LeftFoot  -0.816612 0.250385 -2.67628
LeftToes  7.91257e-010 -1.64976e-010 -3.02228e-011
448
root  -3.26734 39.2733 -4.13954 34.7607 81.2483 34.7296
RightUpLeg  2.18599 -8.18683 -0.993124
RightLeg  14.358 3.09116 -0.0696592
RightFoot  -16.8335 -0.430547 -6.59678
RightToes  -6.98493e-010 0 -3.6325e-017
Spine  10.6787 -0.818019 11.0273
Spine1  1.35779 1.27711 -4.94211
HEad  -15.0292 2.17952 -6.83065
LeftShoulder1  -0.0762385 3.7118 -30.5257
LeftArm  -6.11826 12.3471 -41.1595
LeftForeArm  26.1572 -11.0073 -6.67719
LeftHand  -0.0289606 4.88413 -0.593323
RightShoulder  -0.350421 -4.60267 24.8448
RightArm  25.0067 1.75638 54.161
RightForeArm  3.99367 27.4824 5.71515
RightHand  -0.603831 4.59796 -7.30949
LeftUpLeg  -17.94 0.869875 1.63465
LeftLeg  32.6761 -0.0698971 0.314532
LeftFoot  -1.24035 0.372019 -4.10629
LeftToes  7.91257e-010 -1.64976e-010 -3.02228e-011
449
root  -2.42284 39.2422 -4.04128 32.0349 80.2847 31.7077
RightUpLeg  3.83377 -8.10377 -1.39931
RightLeg  13.0883 4.10631 -0.0419311
RightFoot  -17.265 -0.45434 -6.52088
RightToes  -6.98493e-010 0 -3.6325e-017
Spine  10.4535 -0.566459 10.603
Spine1  1.00918 1.40219 -5.66054
HEad  -15.0603 2.55512 -6.62734
LeftShoulder1  -0.0347229 3.59901 -30.3427
LeftArm  -7.01241 13.3292 -40.7365
LeftForeArm  26.4249 -10.1287 -6.59416
LeftHand  -0.0343458 5.37836 -0.675237
RightShoulder  -0.362886 -4.63679 25.0095
RightArm  24.9757 2.28337 53.5866
RightForeArm  4.25391 28.1994 5.87173
RightHand  -0.628792 5.5354 -6.96369
LeftUpLeg  -18.9237 0.961713 0.799025
LeftLeg  24.4361 -3.38936 -1.31374
LeftFoot  -0.87848 0.532139 -5.76121
LeftToes  7.91257e-010 -1.64976e-010 -3.02228e-011
450
root  -1.53796 39.203 -3.929 31.7749 79.6674 31.2013
RightUpLeg  5.6863 -8.17328 -2.00389
RightLeg  11.686 4.84512 -0.0306795
RightFoot  -17.6384 -0.468417 -6.33634
RightToes  -6.98493e-010 0 -3.6325e-017
Spine  9.96506 -0.313841 9.76962
Spine1  1.19151 1.49404 -5.95665
HEad  -14.6707 2.19283 -5.98679
LeftShoulder1  -0.0125518 3.53857 -30.1872
LeftArm  -7.4379 14.0802 -40.4828
LeftForeArm  26.5587 -9.90782 -6.46942
LeftHand  -0.0407585 5.91293 -0.808016
RightShoulder  -0.363616 -4.64126 24.9475
RightArm  23.8277 1.88566 52.9578
RightForeArm  3.85273 28.8226 6.04198
RightHand  -0.746888 6.18224 -7.80769
LeftUpLeg  -19.4046 1.61725 -0.614593
LeftLeg  15.688 -5.56255 -1.55924
LeftFoot  -0.912104 0.622284 -6.75311
LeftToes  7.91257e-010 -1.64976e-010 -3.02228e-011
451
root  -0.60035 39.113 -3.81068 32.2928 79.1324 31.7124
RightUpLeg  7.74247 -8.43202 -2.86875
RightLeg  10.7454 5.59564 0.0622912
RightFoot  -18.3533 -0.510651 -6.30926
RightToes  -6.98493e-010 0 -3.6325e-017
Spine  9.64684 -0.115018 8.55097
Spine1  1.55775 1.55854 -6.05975
HEad  -14.8869 1.89562 -5.72012
LeftShoulder1  -0.0657645 3.68491 -30.175
LeftArm  -7.70851 14.4783 -40.1298
LeftForeArm  26.7586 -9.72976 -6.38576
LeftHand  -0.0428708 6.18361 -1.02275
RightShoulder  -0.33696 -4.56592 24.6557
RightArm  24.3294 2.07095 52.5063
RightForeArm  2.58535 27.529 5.80201
RightHand  -0.665493 5.92504 -7.14312
LeftUpLeg  -19.4627 2.5578 -2.30799
LeftLeg  8.04189 -1.8161 -0.945011
LeftFoot  -0.255257 0.816469 -8.36767
LeftToes  7.91257e-010 -1.64976e-010 -3.02228e-011
452
root  0.391258 38.966 -3.71036 31.8671 78.8476 31.6736
RightUpLeg  10.2094 -8.49946 -3.50349
RightLeg  10.0039 6.02574 -0.0581786
RightFoot  -19.2788 -0.526198 -5.69848
RightToes  -6.98493e-010 0 -3.6325e-017
Spine  9.66436 0.0334376 8.07463
Spine1  2.01701 1.84471 -6.80401
HEad  -14.6488 1.46917 -5.13349
LeftShoulder1  -0.0518538 3.64495 -30.4984
LeftArm  -7.58582 14.2154 -39.2556
LeftForeArm  26.5291 -9.2635 -6.4814
LeftHand  -0.0332339 5.83961 -0.416568
RightShoulder  -0.331105 -4.54576 24.68
RightArm  24.6413 1.73617 51.7998
RightForeArm  1.21725 25.5284 5.38875
RightHand  -0.690438 5.53012 -7.6376
LeftUpLeg  -19.2949 1.85838 -3.08113
LeftLeg  3.69431 6.08873 -1.66148
LeftFoot  0.996866 1.01725 -9.46631
LeftToes  7.91257e-010 -1.64976e-010 -3.02228e-011
